<?xml version="1.0" encoding="UTF-8" standalone="no"?>
<!-- Created with Inkscape (http://www.inkscape.org/) -->
<svg
   xmlns:dc="http://purl.org/dc/elements/1.1/"
   xmlns:cc="http://creativecommons.org/ns#"
   xmlns:rdf="http://www.w3.org/1999/02/22-rdf-syntax-ns#"
   xmlns:svg="http://www.w3.org/2000/svg"
   xmlns="http://www.w3.org/2000/svg"
   xmlns:sodipodi="http://sodipodi.sourceforge.net/DTD/sodipodi-0.dtd"
   xmlns:inkscape="http://www.inkscape.org/namespaces/inkscape"
   width="335.28046"
   height="461.71796"
   id="svg4684"
   sodipodi:version="0.32"
   inkscape:version="0.46"
   sodipodi:docname="expHall.svg"
   inkscape:output_extension="org.inkscape.output.svg.inkscape"
   version="1.0"
   inkscape:export-filename="/home/johannes/Desktop/docu/expHall.png"
   inkscape:export-xdpi="90"
   inkscape:export-ydpi="90">
  <defs
     id="defs3">
    <inkscape:perspective
       sodipodi:type="inkscape:persp3d"
       inkscape:vp_x="659.99998 : 584.75251 : 1"
       inkscape:vp_y="6.1230318e-14 : 1000 : 0"
       inkscape:vp_z="24.094478 : 597.60966 : 1"
       inkscape:persp3d-origin="372.04724 : 350.78739 : 1"
       id="perspective4690" />
  </defs>
  <sodipodi:namedview
     inkscape:document-units="mm"
     id="base"
     pagecolor="#ffffff"
     bordercolor="#666666"
     borderopacity="1.0"
     inkscape:pageopacity="0.0"
     inkscape:pageshadow="2"
     inkscape:zoom="0.92"
     inkscape:cx="34.128844"
     inkscape:cy="210.79861"
     inkscape:current-layer="layer1"
     showgrid="false"
     showguides="true"
     inkscape:guide-bbox="true"
     inkscape:window-width="1024"
     inkscape:window-height="741"
     inkscape:window-x="0"
     inkscape:window-y="3">
    <sodipodi:guide
       orientation="1,0"
       position="-143.57143,905.71429"
       id="guide4720" />
    <sodipodi:guide
       orientation="1,0"
       position="-159.28571,941.42857"
       id="guide5242" />
    <sodipodi:guide
       orientation="1,0"
       position="-67.857143,942.14286"
       id="guide5260" />
  </sodipodi:namedview>
  <metadata
     id="metadata4">
    <rdf:RDF>
      <cc:Work
         rdf:about="">
        <dc:format>image/svg+xml</dc:format>
        <dc:type
           rdf:resource="http://purl.org/dc/dcmitype/StillImage" />
      </cc:Work>
    </rdf:RDF>
  </metadata>
  <g
     inkscape:label="Layer 1"
     inkscape:groupmode="layer"
     id="layer1"
     transform="translate(-53.781644,-134.00039)">
    <path
       style="fill:none;fill-opacity:1;fill-rule:nonzero;stroke:#000000;stroke-width:0.99921262;stroke-miterlimit:4;stroke-dashoffset:0;stroke-opacity:1"
       d="M 221.0625,156.65625 C 148.71107,156.65589 90.001492,171.03838 90,188.78125 C 89.998508,206.52411 148.71107,220.93715 221.0625,220.9375 C 288.80373,220.93785 344.59896,208.29793 351.4375,192.125 C 351.9029,191.02433 352.15616,189.91182 352.15625,188.78125 L 352.0625,187.78125 C 349.80822,170.40669 291.94793,156.65662 221.0625,156.65625 z M 89.28125,187.375 L 95.71875,512.375 L 89.28125,187.375 z M 352.84375,190.21875 L 345.71875,513.0625 L 352.84375,190.21875 z M 220.71875,480.3125 C 151.77852,480.31214 95.813921,494.98514 95.8125,513.0625 C 95.811077,531.13988 151.77853,545.8121 220.71875,545.8125 C 289.65899,545.81287 345.59233,531.13989 345.59375,513.0625 L 345.53125,512.03125 C 343.38325,494.32912 288.2621,480.31288 220.71875,480.3125 z"
       id="path5248" />
    <path
       style="fill:none;fill-rule:evenodd;stroke:#000000;stroke-width:0.99921262;stroke-linecap:butt;stroke-linejoin:round;stroke-miterlimit:4;stroke-dasharray:0.9992126, 5.99527559;stroke-dashoffset:0;stroke-opacity:1"
       d="M 231.4375,134.5 L 54.28125,173.0625 L 207.875,246.65625 L 387.84375,176.65625 L 231.4375,134.5 z M 388.5625,176.65625 L 380.71875,509.5 L 388.5625,176.65625 z M 230,459.5 L 61.4375,506.65625 L 206.40625,595.21875 L 379.28125,508.78125 L 230,459.5 z"
       id="path5258" />
    <path
       style="fill:none;fill-rule:evenodd;stroke:#000000;stroke-width:1;stroke-linecap:butt;stroke-linejoin:miter;stroke-miterlimit:4;stroke-dasharray:1,3;stroke-dashoffset:0;stroke-opacity:1"
       d="M 53.571429,173.07647 L 61.428572,505.93361"
       id="path5267"
       sodipodi:nodetypes="cc" />
    <path
       style="fill:none;fill-rule:evenodd;stroke:#000000;stroke-width:1;stroke-linecap:butt;stroke-linejoin:miter;stroke-miterlimit:4;stroke-dasharray:1,4;stroke-dashoffset:0;stroke-opacity:1"
       d="M 207.14286,245.93361 L 207.85714,595.21933"
       id="path5271"
       sodipodi:nodetypes="cc" />
    <path
       style="fill:none;fill-rule:evenodd;stroke:#000000;stroke-width:0.99921262;stroke-linecap:butt;stroke-linejoin:miter;stroke-miterlimit:4;stroke-dasharray:0.99921262,3.99685049;stroke-dashoffset:0;stroke-opacity:1"
       d="M 230,133.79075 L 230,458.79075"
       id="path5273"
       sodipodi:nodetypes="cc" />
    <path
       id="path5298"
       d="M 221.0625,175.07399 C 158.08962,175.07368 106.99027,187.82596 106.98898,203.55775 C 106.98768,219.28952 158.08962,232.06891 221.0625,232.06921 C 280.02278,232.06952 328.58555,220.86229 334.53765,206.5225 C 334.94271,205.54658 335.16314,204.56017 335.16322,203.55775 L 335.08162,202.67109 C 333.11955,187.26587 282.75941,175.07432 221.0625,175.07399 z M 106.36339,202.3109 L 111.96643,490.47342 L 106.36339,202.3109 z M 335.76161,204.83231 L 329.56019,491.083 L 335.76161,204.83231 z M 220.76331,462.04507 C 160.75946,462.04476 112.04927,475.05463 112.04803,491.083 C 112.04679,507.11138 160.75947,520.12055 220.76331,520.12091 C 280.76717,520.12123 329.45015,507.11139 329.45139,491.083 L 329.39699,490.16863 C 327.52742,474.47297 279.55135,462.04541 220.76331,462.04507 z"
       style="fill:none;fill-opacity:1;fill-rule:nonzero;stroke:#0032d4;stroke-width:0.87778503;stroke-miterlimit:4;stroke-dashoffset:0;stroke-opacity:1" />
    <path
       sodipodi:type="star"
       style="fill:none;fill-opacity:1;fill-rule:nonzero;stroke:#ff0000;stroke-width:0.99786258;stroke-linejoin:round;stroke-miterlimit:4;stroke-dasharray:none;stroke-dashoffset:0;stroke-opacity:1"
       id="path5316"
       sodipodi:sides="10"
       sodipodi:cx="-51.42857"
       sodipodi:cy="270.93362"
       sodipodi:r1="89.670601"
       sodipodi:r2="85.281807"
       sodipodi:arg1="-0.53495507"
       sodipodi:arg2="-0.22079581"
       inkscape:flatsided="true"
       inkscape:rounded="0"
       inkscape:randomized="0"
       d="M 25.714289,225.21934 L 37.851497,279.29342 L 15.886755,330.17435 L -31.790154,358.42733 L -86.96827,353.26069 L -128.57143,316.64791 L -140.70864,262.57382 L -118.74389,211.6929 L -71.066985,183.43991 L -15.888869,188.60655 L 25.714289,225.21934 z"
       transform="matrix(1.1344071,0,0,0.2881104,275.84093,412.51765)" />
    <path
       transform="matrix(0.911914,0,0,0.2316028,264.39843,412.82745)"
       d="M 25.714289,225.21934 L 37.851497,279.29342 L 15.886755,330.17435 L -31.790154,358.42733 L -86.96827,353.26069 L -128.57143,316.64791 L -140.70864,262.57382 L -118.74389,211.6929 L -71.066985,183.43991 L -15.888869,188.60655 L 25.714289,225.21934 z"
       inkscape:randomized="0"
       inkscape:rounded="0"
       inkscape:flatsided="true"
       sodipodi:arg2="-0.22079581"
       sodipodi:arg1="-0.53495507"
       sodipodi:r2="85.281807"
       sodipodi:r1="89.670601"
       sodipodi:cy="270.93362"
       sodipodi:cx="-51.42857"
       sodipodi:sides="10"
       id="path5318"
       style="fill:none;fill-opacity:1;fill-rule:nonzero;stroke:#ff0000;stroke-width:0.99786258;stroke-linejoin:round;stroke-miterlimit:4;stroke-dasharray:none;stroke-dashoffset:0;stroke-opacity:1"
       sodipodi:type="star" />
    <path
       sodipodi:type="star"
       style="fill:none;fill-opacity:1;fill-rule:nonzero;stroke:#ff0000;stroke-width:0.99786258;stroke-linejoin:round;stroke-miterlimit:4;stroke-dasharray:none;stroke-dashoffset:0;stroke-opacity:1"
       id="path5320"
       sodipodi:sides="10"
       sodipodi:cx="-51.42857"
       sodipodi:cy="270.93362"
       sodipodi:r1="89.670601"
       sodipodi:r2="85.281807"
       sodipodi:arg1="-0.53495507"
       sodipodi:arg2="-0.22079581"
       inkscape:flatsided="true"
       inkscape:rounded="0"
       inkscape:randomized="0"
       d="M 25.714289,225.21934 L 37.851497,279.29342 L 15.886755,330.17435 L -31.790154,358.42733 L -86.96827,353.26069 L -128.57143,316.64791 L -140.70864,262.57382 L -118.74389,211.6929 L -71.066985,183.43991 L -15.888869,188.60655 L 25.714289,225.21934 z"
       transform="matrix(0.9683272,0,0,0.2459303,267.29968,152.51707)" />
    <path
       transform="matrix(1.1982314,0,0,0.3043201,279.12332,127.4116)"
       d="M 25.714289,225.21934 L 37.851497,279.29342 L 15.886755,330.17435 L -31.790154,358.42733 L -86.96827,353.26069 L -128.57143,316.64791 L -140.70864,262.57382 L -118.74389,211.6929 L -71.066985,183.43991 L -15.888869,188.60655 L 25.714289,225.21934 z"
       inkscape:randomized="0"
       inkscape:rounded="0"
       inkscape:flatsided="true"
       sodipodi:arg2="-0.22079581"
       sodipodi:arg1="-0.53495507"
       sodipodi:r2="85.281807"
       sodipodi:r1="89.670601"
       sodipodi:cy="270.93362"
       sodipodi:cx="-51.42857"
       sodipodi:sides="10"
       id="path5322"
       style="fill:none;fill-opacity:1;fill-rule:nonzero;stroke:#ff0000;stroke-width:0.99786258;stroke-linejoin:round;stroke-miterlimit:4;stroke-dasharray:none;stroke-dashoffset:0;stroke-opacity:1"
       sodipodi:type="star" />
    <path
       style="fill:none;fill-rule:evenodd;stroke:#ff0000;stroke-width:1px;stroke-linecap:butt;stroke-linejoin:miter;stroke-opacity:1"
       d="M 137.875,191.71875 L 142.4375,473.53125 L 137.875,191.71875 z M 153.53125,204.84375 L 156.5625,461.4375 L 153.53125,204.84375 z M 111.125,206.875 L 116.6875,487.6875 L 111.125,206.875 z M 131.3125,218.46875 L 135.875,474.0625 L 131.3125,218.46875 z M 124.75,224.03125 L 129.3125,502.84375 L 124.75,224.03125 z M 143.9375,231.625 L 148,486.15625 L 143.9375,231.625 z"
       id="path5324" />
    <path
       style="fill:none;fill-rule:evenodd;stroke:#f80000;stroke-width:1px;stroke-linecap:butt;stroke-linejoin:miter;stroke-opacity:1"
       d="M 174.24492,235.15117 L 177.28125,513.9375 L 174.24492,235.15117 z M 182.31758,239.68242 L 184.84375,494.25 L 182.31758,239.68242 z"
       id="path5330"
       sodipodi:nodetypes="cccccc" />
    <path
       style="fill:none;fill-rule:evenodd;stroke:#ff0000;stroke-width:0.99921262;stroke-linecap:butt;stroke-linejoin:miter;stroke-miterlimit:4;stroke-dasharray:none;stroke-opacity:1"
       d="M 260.625,184.65625 L 258.59375,466.46875 L 260.625,184.65625 z M 252.03125,199.28125 L 251.03125,456.875 L 252.03125,199.28125 z M 292.4375,208.375 L 288.40625,464.96875 L 292.4375,208.375 z M 282.84375,234.65625 L 279.3125,489.1875 L 282.84375,234.65625 z M 241.4375,236.65625 L 240.90625,514.96875 L 241.4375,236.65625 z M 239.40625,240.71875 L 235.875,496.78125 L 239.40625,240.71875 z"
       id="path5332" />
    <path
       style="fill:none;fill-rule:evenodd;stroke:#ff0000;stroke-width:1px;stroke-linecap:butt;stroke-linejoin:miter;stroke-opacity:1"
       d="M 298.50008,477.08031 L 303.55084,221.00664"
       id="path5336"
       sodipodi:nodetypes="cc" />
    <path
       style="fill:none;fill-rule:evenodd;stroke:#f90000;stroke-width:1px;stroke-linecap:butt;stroke-linejoin:miter;stroke-opacity:1"
       d="M 310.125,196.25 L 305.0625,477.09375 L 310.125,196.25 z M 298.5,228.59375 L 293.96875,507.875 L 298.5,228.59375 z"
       id="path5344" />
    <path
       style="fill:none;fill-rule:evenodd;stroke:#ff0000;stroke-width:1px;stroke-linecap:butt;stroke-linejoin:miter;stroke-opacity:1"
       d="M 324.25897,211.91526 L 317.69298,492.73767"
       id="path5346" />
    <path
       style="fill:none;fill-rule:evenodd;stroke:#ff0000;stroke-width:1px;stroke-linecap:butt;stroke-linejoin:miter;stroke-opacity:1"
       d="M 194.46875,183.125 L 195.46875,465.46875 L 194.46875,183.125 z M 198.5,198.28125 L 200.5,455.375 L 198.5,198.28125 z"
       id="path5350" />
    <path
       style="fill:none;fill-rule:evenodd;stroke:#ff0000;stroke-width:1px;stroke-linecap:butt;stroke-linejoin:miter;stroke-opacity:1"
       d="M 111.62186,207.36958 L 131.82491,217.4711"
       id="path5389" />
    <path
       style="fill:none;fill-rule:evenodd;stroke:#ff0000;stroke-width:1px;stroke-linecap:butt;stroke-linejoin:miter;stroke-opacity:1"
       d="M 137.88582,192.21729 L 153.03811,204.8442"
       id="path5391" />
    <path
       style="fill:none;fill-rule:evenodd;stroke:#ff0000;stroke-width:1px;stroke-linecap:butt;stroke-linejoin:miter;stroke-opacity:1"
       d="M 194.45437,183.12592 L 198.49498,197.77313"
       id="path5393" />
    <path
       style="fill:none;fill-rule:evenodd;stroke:#ff0000;stroke-width:1px;stroke-linecap:butt;stroke-linejoin:miter;stroke-opacity:1"
       d="M 261.62951,185.14622 L 251.02291,198.78328"
       id="path5395" />
    <path
       style="fill:none;fill-rule:evenodd;stroke:#ff0000;stroke-width:1px;stroke-linecap:butt;stroke-linejoin:miter;stroke-opacity:1"
       d="M 310.11683,195.75282 L 292.43916,207.87465"
       id="path5397" />
    <path
       style="fill:none;fill-rule:evenodd;stroke:#ff0000;stroke-width:1px;stroke-linecap:butt;stroke-linejoin:miter;stroke-opacity:1"
       d="M 323.24881,212.42034 L 303.55084,221.00664"
       id="path5399" />
    <path
       style="fill:none;fill-rule:evenodd;stroke:#ff0000;stroke-width:1px;stroke-linecap:butt;stroke-linejoin:miter;stroke-opacity:1"
       d="M 299.00515,229.08786 L 282.84271,234.13862"
       id="path5401" />
    <path
       style="fill:none;fill-rule:evenodd;stroke:#ff0000;stroke-width:1px;stroke-linecap:butt;stroke-linejoin:miter;stroke-opacity:1"
       d="M 241.93153,235.65385 L 239.40615,241.71476"
       id="path5403" />
    <path
       style="fill:none;fill-rule:evenodd;stroke:#ff0000;stroke-width:1px;stroke-linecap:butt;stroke-linejoin:miter;stroke-opacity:1"
       d="M 174.25131,235.14877 L 181.82746,239.69446"
       id="path5405" />
    <path
       style="fill:none;fill-rule:evenodd;stroke:#ff0000;stroke-width:1px;stroke-linecap:butt;stroke-linejoin:miter;stroke-opacity:1"
       d="M 126.26907,224.54217 L 143.94674,231.10816"
       id="path5407" />
    <path
       style="fill:none;fill-rule:evenodd;stroke:#ff0000;stroke-width:1px;stroke-linecap:butt;stroke-linejoin:miter;stroke-opacity:1"
       d="M 116.67262,487.68691 L 135.36044,473.54477"
       id="path5409" />
    <path
       style="fill:none;fill-rule:evenodd;stroke:#ff0000;stroke-width:1px;stroke-linecap:butt;stroke-linejoin:miter;stroke-opacity:1"
       d="M 129.8046,502.8392 L 147.98735,486.17168"
       id="path5411" />
    <path
       style="fill:none;fill-rule:evenodd;stroke:#ff0000;stroke-width:1px;stroke-linecap:butt;stroke-linejoin:miter;stroke-opacity:1"
       d="M 177.28177,513.95088 L 184.35284,494.75798"
       id="path5413" />
    <path
       style="fill:none;fill-rule:evenodd;stroke:#ff0000;stroke-width:1px;stroke-linecap:butt;stroke-linejoin:miter;stroke-opacity:1"
       d="M 241.42646,515.4661 L 235.87062,495.76813"
       id="path5415" />
    <path
       style="fill:none;fill-rule:evenodd;stroke:#ff0000;stroke-width:1px;stroke-linecap:butt;stroke-linejoin:miter;stroke-opacity:1"
       d="M 293.95439,507.38488 L 278.8021,489.20214"
       id="path5417" />
    <path
       style="fill:none;fill-rule:evenodd;stroke:#ff0000;stroke-width:1px;stroke-linecap:butt;stroke-linejoin:miter;stroke-opacity:1"
       d="M 318.19805,492.2326 L 297.995,476.57523"
       id="path5419" />
    <path
       style="fill:none;fill-rule:evenodd;stroke:#ff0000;stroke-width:1px;stroke-linecap:butt;stroke-linejoin:miter;stroke-opacity:1"
       d="M 304.56099,477.08031 L 287.89348,464.4534"
       id="path5421" />
    <path
       style="fill:none;fill-rule:evenodd;stroke:#ff0000;stroke-width:1px;stroke-linecap:butt;stroke-linejoin:miter;stroke-opacity:1"
       d="M 257.08382,465.96863 L 251.02291,456.37218"
       id="path5423" />
    <path
       style="fill:none;fill-rule:evenodd;stroke:#ff0000;stroke-width:1px;stroke-linecap:butt;stroke-linejoin:miter;stroke-opacity:1"
       d="M 195.96959,465.46355 L 200.51528,455.36203"
       id="path5425" />
    <path
       style="fill:none;fill-rule:evenodd;stroke:#ff0000;stroke-width:1px;stroke-linecap:butt;stroke-linejoin:miter;stroke-opacity:1"
       d="M 142.43151,473.0397 L 156.06857,462.4331"
       id="path5427" />
  </g>
</svg>
